<svg xmlns="http://www.w3.org/2000/svg" xmlns:xlink="http://www.w3.org/1999/xlink" width="156" height="227" viewBox="0 0 156 227">
  <defs>
    <filter id="Title_Front" x="0" y="0" width="156" height="227" filterUnits="userSpaceOnUse">
      <feOffset dy="3" input="SourceAlpha"/>
      <feGaussianBlur stdDeviation="3" result="blur"/>
      <feFlood flood-opacity="0.161"/>
      <feComposite operator="in" in2="blur"/>
      <feComposite in="SourceGraphic"/>
    </filter>
  </defs>
  <g id="Group_12451" data-name="Group 12451" transform="translate(-28 -477)">
    <g transform="matrix(1, 0, 0, 1, 28, 477)" filter="url(#Title_Front)">
      <g id="Title_Front-2" data-name="Title Front" transform="translate(9 6)" fill="none" stroke="#cbcbcb" stroke-width="2" stroke-dasharray="10">
        <rect width="138" height="209" rx="13" stroke="none"/>
        <rect x="1" y="1" width="136" height="207" rx="12" fill="none"/>
      </g>
    </g>
    <g id="picture_1_" data-name="picture (1)" transform="translate(72 553)" opacity="0.6">
      <path id="Path_40843" data-name="Path 40843" d="M17.022,30.182a6.591,6.591,0,1,0-6.591-6.591A6.6,6.6,0,0,0,17.022,30.182Zm0-10.815A4.224,4.224,0,1,1,12.8,23.592,4.23,4.23,0,0,1,17.022,19.367Z" transform="translate(0.813)" fill="#bbb"/>
      <path id="Path_40844" data-name="Path 40844" d="M7.184,50.221a1.181,1.181,0,0,0,.781-.295l19.307-17L39.465,45.12a1.183,1.183,0,0,0,1.674-1.674l-5.689-5.689,10.866-11.9L59.643,38.076a1.184,1.184,0,1,0,1.6-1.746l-14.2-13.019a1.221,1.221,0,0,0-.852-.31,1.186,1.186,0,0,0-.821.385l-11.592,12.7-5.614-5.614a1.185,1.185,0,0,0-1.619-.052L6.4,48.149a1.184,1.184,0,0,0,.782,2.072Z" transform="translate(0 1.101)" fill="#bbb"/>
    </g>
  </g>
</svg>
